<?xml version="1.0" encoding="iso-8859-1"?>
<!-- Generator: Adobe Illustrator 21.0.0, SVG Export Plug-In . SVG Version: 6.00 Build 0)  -->
<svg xmlns="http://www.w3.org/2000/svg" xmlns:xlink="http://www.w3.org/1999/xlink" version="1.1" id="Capa_1" x="0px" y="0px" viewBox="0 0 512 512" style="enable-background:new 0 0 512 512;" xml:space="preserve" width="512" height="512">
<g>
	<g>
		<g>
			<g>
				<g>
					<g>
						<g>
							<g>
								<g>
									<g>
										<g>
											<g>
												<circle style="fill:#FFDA00;" cx="256" cy="256" r="256"/>
											</g>
										</g>
									</g>
								</g>
							</g>
						</g>
					</g>
				</g>
			</g>
		</g>
	</g>
	<path style="fill:#FFB000;" d="M290.533,509.674C415.584,492.809,512,385.672,512,256c0-6.256-0.236-12.456-0.677-18.6   l-76.652-76.652l-52.413,44.477l56.943,56.943l-17.305,6.219l-93.595-93.595l-113.04,118.285l-71.193-71.193l-76.572,64.752   L290.533,509.674z"/>
	<g>
		<polygon style="fill:#555A66;" points="328.301,337.208 117.404,270.459 117.404,241.542 328.301,174.792   "/>
	</g>
	<g>
		<polygon style="fill:#353D44;" points="117.404,255.293 117.404,270.459 328.301,337.208 328.301,255.293   "/>
	</g>
	<g>
		<circle style="fill:#FF641A;" cx="107.253" cy="256" r="50.201"/>
	</g>
	<g>
		<path style="fill:#F03800;" d="M57.069,255.293c-0.003,0.236-0.018,0.47-0.018,0.707c0,27.725,22.476,50.201,50.201,50.201    s50.201-22.476,50.201-50.201c0-0.237-0.015-0.471-0.018-0.707H57.069z"/>
	</g>
	<g>
		<rect x="383.259" y="241.007" style="fill:#555A66;" width="68.741" height="30"/>
	</g>
	<g>
		<rect x="383.259" y="255.293" style="fill:#353D44;" width="68.741" height="15.714"/>
	</g>
	<g>
		
			<rect x="383.76" y="306.08" transform="matrix(0.647 -0.7625 0.7625 0.647 -118.8303 424.2167)" style="fill:#353D44;" width="30" height="68.741"/>
	</g>
	<g>
		
			<rect x="364.389" y="156.55" transform="matrix(0.7625 -0.647 0.647 0.7625 -16.2808 298.7498)" style="fill:#555A66;" width="68.741" height="30"/>
	</g>
</g>















</svg>
